<svg width="1696" height="290" viewBox="0 0 1696 290" fill="none" xmlns="http://www.w3.org/2000/svg">
<path d="M1516.66 285.874V192.265L1406.83 0H1485.39L1549.56 122.538H1554.09L1617.85 0H1696L1586.17 192.265V285.874H1516.66Z" fill="#292929"/>
<path d="M1208.45 285.874V59.8248H1114.67V0H1372.58V59.8248H1278.38V285.874H1208.45Z" fill="#292929"/>
<path d="M997.064 285.874V0H1067.4V285.874H997.064Z" fill="#292929"/>
<path d="M734.16 285.874V0H804.499V225.637H950.114V285.874H734.16Z" fill="#292929"/>
<path d="M609.842 285.874V0H680.181V285.874H609.842Z" fill="#292929"/>
<path d="M399.058 285.874V59.8248H305.273V0H563.183V59.8248H468.986V285.874H399.058Z" fill="#292929"/>
<path d="M84.4555 290C37.812 290 0 252.074 0 205.289V0.000236902H69.9279V219.938H188.394V0.000236902H258.322V205.289C258.322 252.074 220.51 290 173.866 290H84.4555Z" fill="#292929"/>
</svg>
