<svg width="28" height="28" viewBox="0 0 28 28" fill="none" xmlns="http://www.w3.org/2000/svg">
<path d="M7.81247 23.3339H23.3281V23.2398C23.3281 19.5671 20.3508 16.5898 16.6781 16.5898H11.3116C7.63892 16.5898 4.66162 19.5671 4.66162 23.2398V23.3339V24.3866" stroke="#FCFDFF" stroke-width="2.1"/>
<path d="M14 15.6927V3.51173" stroke="#FCFDFF" stroke-width="2.1"/>
<path d="M13.6442 11.7252L14.0712 12.6844L14.7686 12.3739L14.6884 11.6147L13.6442 11.7252ZM6.08763 7.36562L5.66056 6.40639L4.96317 6.71689L5.04345 7.47604L6.08763 7.36562ZM13.2171 10.7659C11.9885 11.313 10.5286 11.2831 9.27826 10.5612L8.22826 12.3798C10.0854 13.452 12.2549 13.4931 14.0712 12.6844L13.2171 10.7659ZM9.27826 10.5612C8.02879 9.83981 7.27314 8.59171 7.13181 7.25519L5.04345 7.47604C5.25239 9.45184 6.37245 11.3084 8.22826 12.3798L9.27826 10.5612ZM6.5147 8.32484C7.74335 7.77781 9.20321 7.80772 10.4535 8.52959L11.5035 6.71094C9.64645 5.63875 7.47689 5.59771 5.66056 6.40639L6.5147 8.32484ZM10.4535 8.52959C11.703 9.25098 12.4587 10.4991 12.6 11.8356L14.6884 11.6147C14.4794 9.63895 13.3594 7.78239 11.5035 6.71094L10.4535 8.52959Z" fill="#FCFDFF"/>
<path d="M14.3558 11.7252L13.9288 12.6844L13.2314 12.3739L13.3116 11.6147L14.3558 11.7252ZM21.9124 7.36562L22.3394 6.40639L23.0368 6.71689L22.9565 7.47604L21.9124 7.36562ZM14.7829 10.7659C16.0115 11.313 17.4714 11.2831 18.7217 10.5612L19.7717 12.3798C17.9146 13.452 15.7451 13.4931 13.9288 12.6844L14.7829 10.7659ZM18.7217 10.5612C19.9712 9.83981 20.7269 8.59171 20.8682 7.25519L22.9565 7.47604C22.7476 9.45184 21.6275 11.3084 19.7717 12.3798L18.7217 10.5612ZM21.4853 8.32484C20.2566 7.77781 18.7968 7.80772 17.5465 8.52959L16.4965 6.71094C18.3535 5.63875 20.5231 5.59771 22.3394 6.40639L21.4853 8.32484ZM17.5465 8.52959C16.297 9.25098 15.5413 10.4991 15.4 11.8356L13.3116 11.6147C13.5206 9.63895 14.6406 7.78239 16.4965 6.71094L17.5465 8.52959Z" fill="#FCFDFF"/>
</svg>
