<svg width="28" height="28" viewBox="0 0 28 28" fill="none" xmlns="http://www.w3.org/2000/svg">
<g clip-path="url(#clip0_3913_3048)">
<mask id="path-1-outside-1_3913_3048" maskUnits="userSpaceOnUse" x="2.64062" y="12.4141" width="22" height="14" fill="black">
<rect fill="white" x="2.64062" y="12.4141" width="22" height="14"/>
<path d="M16.0617 15.4141H11.8795V15.4141C11.8795 17.5107 10.596 19.3936 8.64447 20.1599L7.56733 20.5829C6.40503 21.0394 5.64063 22.1608 5.64063 23.4095L5.64062 23.4641H22.3622V23.4272C22.3622 22.1686 21.5895 21.0391 20.4164 20.5829L19.3009 20.1492C17.3481 19.3898 16.0617 17.5094 16.0617 15.4141V15.4141Z"/>
</mask>
<path d="M5.64062 23.4641L3.54062 23.4641L3.54062 25.5641H5.64062V23.4641ZM22.3622 23.4641V25.5641H24.4622V23.4641H22.3622ZM20.4164 20.5829L19.6554 22.5402L20.4164 20.5829ZM7.56733 20.5829L6.79972 18.6283L7.56733 20.5829ZM5.64063 23.4095L3.54062 23.4095L5.64063 23.4095ZM19.3009 20.1492L20.062 18.1919L19.3009 20.1492ZM8.64447 20.1599L9.41208 22.1146L8.64447 20.1599ZM11.8795 17.5141H16.0617V13.3141H11.8795V17.5141ZM8.33493 22.5376L9.41208 22.1146L7.87687 18.2053L6.79972 18.6283L8.33493 22.5376ZM7.74063 23.4641L7.74063 23.4095L3.54062 23.4095L3.54062 23.4641L7.74063 23.4641ZM20.2622 23.4272V23.4641H24.4622V23.4272H20.2622ZM18.5399 22.1064L19.6554 22.5402L21.1775 18.6257L20.062 18.1919L18.5399 22.1064ZM22.3622 21.3641H5.64062V25.5641H22.3622V21.3641ZM24.4622 23.4272C24.4622 21.3025 23.1578 19.3958 21.1775 18.6257L19.6554 22.5402C20.0212 22.6824 20.2622 23.0347 20.2622 23.4272H24.4622ZM6.79972 18.6283C4.83365 19.4003 3.54063 21.2973 3.54062 23.4095L7.74063 23.4095C7.74063 23.0243 7.97641 22.6784 8.33493 22.5376L6.79972 18.6283ZM20.062 18.1919C18.9164 17.7464 18.1617 16.6433 18.1617 15.4141H13.9617C13.9617 18.3755 15.7798 21.0331 18.5399 22.1064L20.062 18.1919ZM9.77947 15.4141C9.77947 16.6472 9.02463 17.7545 7.87687 18.2053L9.41208 22.1146C12.1674 21.0326 13.9795 18.3742 13.9795 15.4141H9.77947Z" fill="#FCFDFF" mask="url(#path-1-outside-1_3913_3048)"/>
<path d="M6.64844 14.3652H21.3484" stroke="#FCFDFF" stroke-width="2.1"/>
<circle cx="14.0047" cy="9.28984" r="5.075" stroke="#FCFDFF" stroke-width="2.1"/>
<path d="M22.3594 23.334L22.3594 31.034L20.2594 31.034L20.2594 23.334L22.3594 23.334Z" fill="#0A0A0A"/>
</g>
<defs>
<clipPath id="clip0_3913_3048">
<rect width="28" height="28" fill="white"/>
</clipPath>
</defs>
</svg>
