<svg width="137" height="24" viewBox="0 0 137 24" fill="none" xmlns="http://www.w3.org/2000/svg">
<path d="M0 24H9.85892C15.4693 24 20.0151 19.451 20.0151 13.8409V13.1483C20.0381 12.7857 20.3489 12.5075 20.7133 12.5075H31.5888C35.0413 12.5247 37.8532 9.73699 37.8705 6.28348C37.8878 2.82996 35.1008 0.0172676 31.6483 0H20.0842L20.0266 11.7976C20.0266 12.1832 19.7121 12.496 19.3246 12.496H10.1562C4.54776 12.496 0 17.045 0 22.655V24Z" fill="#FCFDFF"/>
<path d="M133.3 7.7921H132.596V9.83543H132.199V7.7921H131.461V7.41797H133.287L133.298 7.7921H133.3ZM136.225 7.41797V9.83543H135.823V8.10483L135.046 9.36537H134.994L134.211 8.10483V9.83543H133.809V7.41797H134.211L135.046 8.71112L135.851 7.41797H136.225V7.41797Z" fill="#FCFDFF"/>
<path d="M64.7629 2.93555H62.3672V18.3094H64.7629V2.93555Z" fill="#FCFDFF"/>
<path d="M69.3996 7.44141H67.0039V18.3065H69.3996V7.44141Z" fill="#FCFDFF"/>
<path d="M76.2786 7.13674H76.2536C74.8362 7.13674 73.4935 7.7411 72.5556 8.79634C71.5141 9.91298 70.9981 11.3711 71 12.8907C71 14.4294 71.5141 15.8703 72.5536 16.9831C73.4916 18.0402 74.8266 18.6273 76.244 18.6446C76.2536 18.6446 76.2613 18.6446 76.2709 18.6446C77.6404 18.6504 78.9524 18.1285 79.8021 17.0694L80.2873 16.4535V18.3146H82.683V7.44947H80.2586V9.31821L79.7714 8.70041C78.9255 7.6586 77.6078 7.1329 76.2766 7.13674H76.2786ZM80.2605 12.6355C80.2624 12.7103 80.2624 12.7832 80.2605 12.8581C80.3027 13.7905 79.9459 14.7172 79.2803 15.3906C78.6493 16.0276 77.7785 16.3883 76.8828 16.3883H76.7446C75.8566 16.3883 74.9915 16.0276 74.3643 15.3906C73.7198 14.721 73.3688 13.8059 73.3976 12.8772C73.365 11.9582 73.7179 11.0411 74.3643 10.3734C75.0088 9.7192 75.9103 9.36426 76.8214 9.3796C76.854 9.3796 76.8866 9.3796 76.9192 9.3796C78.7164 9.3796 80.2087 10.8205 80.2605 12.6355V12.6355Z" fill="#FCFDFF"/>
<path d="M91.289 7.12449H91.2622C89.9311 7.12449 88.6248 7.63868 87.7905 8.68816L87.2995 9.3098V3.62109H84.875V18.3139H87.2707V16.4547L87.7617 17.0744C88.6037 18.1316 89.8965 18.642 91.2622 18.6381H91.2833C92.7065 18.6381 94.0588 18.0338 95.0024 16.9785C96.044 15.8638 96.5657 14.4114 96.5638 12.8919C96.5638 11.3455 96.044 9.91033 95.0044 8.79369C94.0588 7.73269 92.7065 7.12641 91.289 7.12641V7.12449ZM93.1745 15.3765L93.1707 15.3803C92.4783 16.0326 91.5883 16.3569 90.7002 16.3569C89.8121 16.3569 88.9375 16.0346 88.2527 15.3918C87.6044 14.7184 87.2515 13.8032 87.2822 12.8746C87.2496 11.9537 87.6025 11.0385 88.2489 10.3708C88.8934 9.71654 89.7968 9.3616 90.706 9.37695C91.619 9.36352 92.5185 9.71079 93.1707 10.3574C93.8171 11.0212 94.1738 11.9287 94.1508 12.8535C94.1796 13.7974 93.8247 14.7184 93.1745 15.3765V15.3765Z" fill="#FCFDFF"/>
<path d="M100.575 7.44141H98.1797V18.3065H100.575V7.44141Z" fill="#FCFDFF"/>
<path d="M105.208 2.93555H102.812V18.3094H105.208V2.93555Z" fill="#FCFDFF"/>
<path d="M109.833 7.44141H107.438V18.3065H109.833V7.44141Z" fill="#FCFDFF"/>
<path d="M55.3403 7.04302H55.2943C53.9017 7.03726 52.5361 7.56872 51.6384 8.63163L51.4102 8.90216V7.32697H49.0586V22.7718H51.4102V16.8011L51.6384 17.0678C52.5495 18.1345 53.8883 18.6391 55.2789 18.6449H55.3384C56.7884 18.6449 58.1771 18.0425 59.1611 16.9834C60.2256 15.8821 60.7742 14.3549 60.7723 12.8468C60.7723 11.3023 60.2314 9.83844 59.163 8.72756C58.181 7.65505 56.7923 7.04302 55.3422 7.04302H55.3403ZM57.4233 15.3737L57.4195 15.3775C56.7194 16.049 55.8198 16.3829 54.9222 16.3829C54.0245 16.3829 53.1249 16.0471 52.4248 15.3775C51.7554 14.7098 51.3852 13.785 51.4102 12.8411C51.3814 11.9048 51.7439 10.9781 52.4056 10.3066C53.8097 8.96355 56.0039 8.96355 57.4041 10.3047C58.0697 10.9781 58.4322 11.9048 58.4035 12.8488C58.4322 13.7774 58.0755 14.7002 57.4252 15.3737H57.4233Z" fill="#FCFDFF"/>
<path d="M121.192 7.44446H115.716V4.46484H115.336L111.168 9.25947V9.61441H113.318V14.7429C113.318 18.3077 115.376 18.3921 117.043 18.3921H118.303V16.1895H117.133C115.718 16.1895 115.704 15.6696 115.704 14.7275V9.61441H119.477L122.195 16.1243H123.95L122.078 21.3122H124.639L129.651 7.42527H127.096L124.265 15.3127L121.192 7.44638V7.44446Z" fill="#FCFDFF"/>
<path d="M68.1999 5.78739C69.005 5.78739 69.6577 5.13456 69.6577 4.32924C69.6577 3.52393 69.005 2.87109 68.1999 2.87109C67.3948 2.87109 66.7422 3.52393 66.7422 4.32924C66.7422 5.13456 67.3948 5.78739 68.1999 5.78739Z" fill="#FCFDFF"/>
<path d="M99.3757 5.78739C100.181 5.78739 100.833 5.13456 100.833 4.32924C100.833 3.52393 100.181 2.87109 99.3757 2.87109C98.5706 2.87109 97.918 3.52393 97.918 4.32924C97.918 5.13456 98.5706 5.78739 99.3757 5.78739Z" fill="#FCFDFF"/>
<path d="M108.637 5.78739C109.443 5.78739 110.095 5.13456 110.095 4.32924C110.095 3.52393 109.443 2.87109 108.637 2.87109C107.832 2.87109 107.18 3.52393 107.18 4.32924C107.18 5.13456 107.832 5.78739 108.637 5.78739Z" fill="#FCFDFF"/>
</svg>
