<svg width="153" height="43" viewBox="0 0 153 43" fill="none" xmlns="http://www.w3.org/2000/svg">
<path d="M8.81748 38.0863C12.4198 40.8434 16.941 42.5 21.8465 42.5C27.2147 42.5 32.1085 40.5294 35.8434 37.2945C35.8888 37.2549 35.8663 37.2288 35.8217 37.2549C34.1458 38.3617 29.3688 40.7776 21.8466 40.7776C15.3095 40.7776 11.1782 39.3354 8.84526 38.0478C8.80062 38.0259 8.78392 38.0591 8.81748 38.0863ZM23.2886 39.1597C28.5172 39.1597 34.2629 37.7504 37.6991 34.9607C38.6394 34.2005 39.5352 33.1889 40.3374 31.8294C40.7992 31.0471 41.251 30.1178 41.6188 29.2043C41.635 29.1597 41.6072 29.1381 41.5732 29.1882C38.3779 33.838 29.1242 36.7382 19.5697 36.7382C12.8159 36.7382 5.54907 34.6026 2.70404 30.5252C2.67579 30.4875 2.648 30.5036 2.66501 30.547C5.31521 36.1169 13.3559 39.1597 23.2886 39.1597ZM17.5759 29.9195C6.70166 29.9195 1.57407 24.9116 0.643951 21.4941C0.632562 21.4446 0.599609 21.4556 0.599609 21.5C0.599609 22.6505 0.716083 24.1352 0.916534 25.1206C1.01205 25.6002 1.40688 26.3531 1.98576 26.9531C4.61895 29.6669 11.1837 33.4697 22.553 33.4697C38.0433 33.4697 41.5851 28.3677 42.3084 26.6899C42.8254 25.49 43.0935 23.3215 43.0935 21.5C43.0935 21.0592 43.0824 20.7072 43.0654 20.3614C43.0654 20.3052 43.0324 20.3007 43.0212 20.3554C42.2472 24.461 29.0126 29.9195 17.5759 29.9195ZM2.648 12.491C2.02478 13.7137 1.33414 15.7765 1.12883 16.8442C1.03863 17.3016 1.07705 17.5213 1.23953 17.8627C2.54276 20.597 9.13546 24.972 24.5137 24.972C33.8954 24.972 41.1834 22.693 42.3642 18.5342C42.5817 17.7686 42.5932 16.9603 42.314 15.8711C42.0019 14.654 41.4174 13.2347 40.9228 12.238C40.9066 12.2056 40.8777 12.2104 40.8835 12.2488C41.0672 17.7035 25.6831 21.2191 17.9208 21.2191C9.51298 21.2191 2.49842 17.9067 2.49842 13.7244C2.49842 13.3226 2.58255 12.9204 2.68748 12.5023C2.69796 12.4638 2.66486 12.4574 2.648 12.491ZM35.8777 5.79377C35.9671 5.93206 36.0116 6.07966 36.0116 6.27846C36.0116 8.61183 28.7893 12.7395 17.2926 12.7395C8.84511 12.7395 7.26353 9.64097 7.26353 7.67037C7.26353 6.96601 7.53672 6.24528 8.13852 5.51328C8.17148 5.46974 8.14354 5.45307 8.10557 5.48536C7.00623 6.40634 6.00435 7.43536 5.11537 8.55657C4.69275 9.08481 4.43034 9.55268 4.43034 9.83317C4.43034 13.9167 14.786 16.8777 24.469 16.8777C34.7863 16.8777 39.3912 13.5475 39.3912 10.6207C39.3912 9.57475 38.9794 8.96423 37.9261 7.78028C37.2423 7.0103 36.5955 6.38312 35.9108 5.76599C35.8777 5.73881 35.8548 5.76074 35.8777 5.79377ZM32.7147 3.46085C29.5304 1.57374 25.833 0.5 21.8466 0.5C17.8324 0.5 14.0234 1.61113 10.8278 3.54824C9.86908 4.13158 9.32969 4.59901 9.32969 5.19992C9.32969 6.97126 13.5164 8.87564 20.944 8.87564C28.2944 8.87564 33.9956 6.78958 33.9956 4.78144C33.9957 4.30246 33.5722 3.96717 32.7147 3.46085Z" fill="#7F7F7F"/>
<path d="M55.5513 15.4612H58.3236C59.5902 15.4612 60.4344 15.854 61.0701 16.6109C61.7553 17.4493 61.8606 18.6223 61.8606 21.4422C61.8606 24.2596 61.7553 25.5913 61.0701 26.4274C60.4344 27.1836 59.5902 27.577 58.3236 27.577H55.5513V15.4612ZM51.8808 12.2276V30.8154H58.6674C60.6191 30.8154 62.3885 30.2654 63.6305 29.0357C65.7407 26.9501 65.5313 24.2353 65.5313 21.4422C65.5313 18.6504 65.7407 16.089 63.6305 14.002C62.3885 12.7747 60.6191 12.2276 58.6674 12.2276H51.8808ZM68.9253 12.2359H72.5914V30.8154H68.9253V12.2359ZM79.9587 15.4703H83.4147C85.025 15.4703 86.0818 16.4894 86.0818 17.9229C86.0818 19.3573 85.0251 20.377 83.4147 20.377H79.9587V15.4703ZM76.2928 12.2359V30.8154H79.9589V23.4023H82.5991L86.2658 30.8154H90.5134L86.3188 22.8027C88.1389 22.1515 89.7479 20.5344 89.7479 17.9231C89.7479 14.8185 87.4805 12.2361 83.6564 12.2361L76.2928 12.2359ZM105.253 30.8154V27.577H96.546V23.0638H103.962V19.8296H96.546V15.4703H105.253V12.2359H92.8798V30.8154H105.253ZM109.156 14.1182C108.336 14.9233 107.836 15.8381 107.625 16.9068C107.414 17.9492 107.309 19.4872 107.309 21.5243C107.309 23.5608 107.414 25.0987 107.625 26.1433C107.836 27.1857 108.336 28.1253 109.156 28.9352C110.527 30.2919 112.216 30.9694 114.221 30.9694C117.811 30.9694 120.503 28.8824 121.137 25.0987H117.412C117.017 26.6903 116.018 27.7334 114.248 27.7334C113.246 27.7334 112.453 27.4192 111.899 26.7696C111.137 25.9598 110.977 25.1268 110.977 21.5243C110.977 17.9229 111.137 17.0897 111.899 16.28C112.453 15.6259 113.246 15.3146 114.248 15.3146C116.018 15.3146 117.017 16.3585 117.412 17.9492H121.136C120.502 14.1672 117.836 12.0802 114.221 12.0802C112.216 12.0803 110.527 12.7571 109.156 14.1182ZM127.045 15.4703V30.8154H130.712V15.4703H135.621V12.2359H122.136V15.4703H127.045ZM141.225 12.2359H137.429L143.628 30.8154H146.374L152.6 12.2359H148.775L145 24.3412L141.225 12.2359Z" fill="#7F7F7F"/>
</svg>
