<svg width="136" height="31" viewBox="0 0 136 31" fill="none" xmlns="http://www.w3.org/2000/svg">
<path d="M132.222 0.5L124.847 16.3133L122.074 10.3215H119.075L123.635 20.1225H126.059L135.2 0.5H132.222Z" fill="#7F7F7F"/>
<path d="M100.587 29.8617H106.524V18.9695C106.524 16.478 107.962 14.7279 110.098 14.7279C112.152 14.7279 113.221 16.1692 113.221 18.2488V29.8617H119.157V17.1163C119.157 12.7924 116.569 9.74503 112.378 9.74503C109.708 9.74503 107.839 10.8981 106.442 12.9983H106.319V10.3216H100.567L100.587 29.8617ZM88.9198 9.78621C82.7162 9.78621 78.5668 14.2543 78.5668 20.1431C78.5668 25.9907 82.7162 30.5 88.9198 30.5C95.1234 30.5 99.2728 25.9907 99.2728 20.1431C99.2933 14.2543 95.1234 9.78621 88.9198 9.78621ZM88.8787 26.0937C86.0645 26.0937 84.5649 23.7258 84.5649 20.1431C84.5649 16.5192 86.0439 14.1925 88.8787 14.1925C91.6929 14.1925 93.2541 16.5192 93.2541 20.1431C93.2746 23.7258 91.7134 26.0937 88.8787 26.0937ZM61.6404 29.8617H78.3203V25.1671H68.8711V25.0436L77.9094 14.8926V10.301H61.6404V15.0161H70.7815V15.1397L61.6404 25.373V29.8617ZM54.0194 29.8617H59.9971V10.3216H54.0194V29.8617ZM40.1538 29.8617H46.1109V20.8844C46.1109 16.8075 48.5553 14.9955 52.2734 15.5103H52.3966V10.3627C52.0885 10.2392 51.7393 10.2186 51.1847 10.2186C48.8635 10.2186 47.3023 11.2893 45.9671 13.5748H45.8438V10.3216H40.1538V29.8617ZM29.2256 26.1143C26.5963 26.1143 24.994 24.4053 24.6859 21.7697H38.7364C38.7775 17.5693 37.6682 14.2131 35.347 12.1129C33.7037 10.5892 31.5468 9.74503 28.7942 9.74503C22.9193 9.74503 18.8521 14.2131 18.8521 20.0607C18.8521 25.9496 22.7344 30.4382 29.1845 30.4382C31.629 30.4382 33.5599 29.7793 35.1622 28.6881C36.8671 27.5144 38.0996 25.7848 38.4283 24.0758H32.7177C32.1631 25.3524 30.9717 26.1143 29.2256 26.1143ZM28.9175 14.0072C31.0127 14.0072 32.4507 15.5721 32.6972 17.8576H24.727C25.1994 15.5515 26.4525 14.0072 28.9175 14.0072ZM6.97895 29.8617H13.2236L20.0024 10.3216H14.0248L10.2245 22.8816H10.1424L6.34216 10.3216H0.200195L6.97895 29.8617ZM54.0194 3.36205H59.9971V8.67433H54.0194V3.36205Z" fill="#7F7F7F"/>
</svg>
