<svg width="127" height="49" viewBox="0 0 127 49" fill="none" xmlns="http://www.w3.org/2000/svg">
<path fill-rule="evenodd" clip-rule="evenodd" d="M26.7691 49C13.8228 49 7.10257 46.1866 3.07224 39.556C0.80395 35.7447 0 28.8936 0 24.4985C0 20.1034 0.80395 13.2628 3.07224 9.44255C7.10257 2.81192 13.8228 0 26.7691 0C39.7155 0 46.4417 2.81192 50.4645 9.44255C52.7313 13.2628 53.5352 20.1034 53.5352 24.4985C53.5352 28.8936 52.7313 35.7372 50.4645 39.556C46.4417 46.1866 39.7139 49 26.7691 49ZM33.2748 38.3481C31.8104 38.3481 29.6887 37.6987 28.6672 35.3917L22.2326 20.0379C20.8408 16.5781 23.5503 13.3357 26.6936 13.3357C28.1564 13.3357 30.2766 13.9866 31.2997 16.2921L37.7358 31.643C39.1261 35.1028 36.4196 38.3466 33.2748 38.3466V38.3481ZM20.33 38.3481C18.8687 38.3481 16.747 37.6987 15.7224 35.3917L9.28623 20.0379C7.89745 16.5781 10.6025 13.3357 13.7473 13.3357C15.2116 13.3357 17.3318 13.9866 18.3564 16.2921L24.791 31.643C26.1813 35.1028 23.4763 38.3466 20.33 38.3466V38.3481ZM41.3551 26.7489C39.8923 26.7489 37.7706 26.0981 36.7475 23.7911L35.1774 20.0394C33.7871 16.5796 36.4906 13.3372 39.6354 13.3372C41.0982 13.3372 43.2199 13.9881 44.243 16.2936L45.8176 20.0453C47.2094 23.5021 44.4999 26.7474 41.3551 26.7474V26.7489Z" fill="#7F7F7F"/>
<path d="M63.2703 15.7515L65.3134 7.94279L67.3566 15.7515H69.9588L73.2441 4.00491H70.6026L68.7287 11.3624C68.6998 11.5132 68.6624 11.6624 68.6169 11.8092V11.833C68.6169 11.8151 68.6078 11.7973 68.6048 11.7809C68.5572 11.629 68.5193 11.4743 68.4915 11.3177L66.5722 3.99895H64.0607L62.1384 11.3341C62.1101 11.491 62.0722 11.6462 62.0251 11.7987C62.0223 11.8118 62.0187 11.8248 62.0145 11.8375C62.0127 11.8259 62.0102 11.8145 62.007 11.8032C61.9597 11.6517 61.9219 11.4975 61.8936 11.3415L60.0243 4.00491H57.3812L60.668 15.7515H63.2703Z" fill="#7F7F7F"/>
<path d="M74.4803 15.7515L75.6394 12.7653H79.8873L81.0464 15.7515H83.7363L78.9579 4.10619L78.9171 4.00491H76.6171L71.7979 15.7515H74.4803ZM77.486 7.99193L77.7626 7.20257L77.9137 7.63151L79.0214 10.5179H76.5098L77.486 7.99193Z" fill="#7F7F7F"/>
<path d="M93.8945 7.39768C93.8945 5.30513 92.2518 4.00491 89.6072 4.00491H84.4919V15.7515H87.0035V11.1166H88.6023L91.2847 15.7515H94.1559L91.3164 10.8441C93.0271 10.1738 93.8945 9.01513 93.8945 7.39768ZM91.3814 7.56002C91.3814 8.45364 90.7769 8.90044 89.6072 8.90044H87.0035V6.21959H89.6133C90.7845 6.21959 91.3814 6.67087 91.3814 7.56002Z" fill="#7F7F7F"/>
<path d="M97.9535 8.04257L97.9807 8.09172C98.0319 8.18785 98.089 8.28085 98.1515 8.37023L103.036 15.7545H105.506V4.00491H103.063V11.6692L103.033 11.617C102.981 11.5209 102.924 11.4279 102.862 11.3385L97.9777 4.00491H95.5069V15.7515H97.952L97.9535 8.04257Z" fill="#7F7F7F"/>
<path d="M115.293 10.8068V8.55938H109.945V6.25236H115.757V4.00491H107.432V15.7515H115.807V13.5056H109.945V10.8068H115.293Z" fill="#7F7F7F"/>
<path d="M124.16 10.8441C125.871 10.1738 126.729 9.01513 126.729 7.39768C126.729 5.30513 125.087 4.00491 122.444 4.00491H117.336V15.7515H119.848V11.1166H121.445L124.129 15.7515H127L124.16 10.8441ZM124.219 7.56002C124.219 8.45364 123.623 8.90044 122.445 8.90044H119.848V6.21959H122.451C123.629 6.21959 124.219 6.67087 124.219 7.56002Z" fill="#7F7F7F"/>
<path d="M65.7003 27.3164L62.1158 18.5113H59.5407V30.2594H61.9873V24.15L62.2382 24.9215L64.5488 30.2594H66.8503L69.167 24.9081L69.4118 24.15V30.2594H71.8584V18.5113H69.2833L65.7003 27.3164Z" fill="#7F7F7F"/>
<path d="M73.6522 18.5113V25.7734C73.6522 28.6375 75.5819 30.4873 78.568 30.4873C81.5541 30.4873 83.4839 28.6375 83.4839 25.7734V18.5113H80.9723V25.5604C80.9723 27.2211 80.0958 28.1743 78.568 28.1743C77.0402 28.1743 76.1637 27.2211 76.1637 25.5604V18.5113H73.6522Z" fill="#7F7F7F"/>
<path d="M89.648 28.2726C88.0855 28.2726 87.2045 27.449 86.8765 25.6781L86.8372 25.4666L84.6098 26.5836L84.637 26.7043C85.1508 29.1081 86.9838 30.4873 89.6647 30.4873C92.61 30.4873 94.1499 28.6419 94.1499 26.8175C94.1499 24.8411 92.9409 23.7107 90.2283 23.1507C88.3091 22.7619 87.5596 22.3077 87.5596 21.5287C87.5596 20.7498 88.5162 20.4981 89.3352 20.4981C90.6107 20.4981 91.4781 21.1415 91.9133 22.4134L91.9768 22.5981L93.9957 21.4543L93.9489 21.3277C93.2039 19.3066 91.67 18.2834 89.3911 18.2834C86.8569 18.2834 85.1598 19.6075 85.1598 21.5779C85.1598 23.4113 86.5305 24.7175 88.9166 25.1628C90.9114 25.5634 91.6519 26.0341 91.6519 26.8994C91.6383 27.7334 90.857 28.2726 89.648 28.2726Z" fill="#7F7F7F"/>
<path d="M98.0397 18.5113H95.5281V30.2579H98.0397V18.5113Z" fill="#7F7F7F"/>
<path d="M110.629 27.3477L110.715 27.2181L108.731 25.8136L108.644 25.9745C107.847 27.4341 106.714 28.1743 105.277 28.1743C103.211 28.1743 101.713 26.5807 101.713 24.3853C101.713 22.19 103.211 20.5964 105.277 20.5964C106.758 20.5964 107.785 21.283 108.508 22.7575L108.592 22.9302L110.629 21.4841L110.575 21.3649C109.697 19.4287 107.741 18.2834 105.343 18.2834C101.765 18.2834 99.167 20.8496 99.167 24.3898C99.167 27.9821 101.673 30.4962 105.26 30.4962C107.974 30.4873 109.284 29.3404 110.629 27.3477Z" fill="#7F7F7F"/>
<path d="M63.6934 40.4228H67.3989C67.2281 41.2241 66.6146 42.6807 64.4143 42.6807C62.3938 42.6807 60.9839 41.1228 60.9839 38.8917C60.9839 36.6607 62.4951 35.0045 64.5805 35.0045C66.0751 35.0045 67.2221 35.6911 67.896 36.9898L67.9837 37.1566L69.8893 35.7909L69.8258 35.6687C68.8934 33.8666 66.9455 32.7898 64.6122 32.7898C61.0927 32.7898 58.4375 35.4126 58.4375 38.8962C58.4375 42.3798 60.9794 45.0026 64.3478 45.0026C65.8242 45.0026 67.015 44.4545 67.8144 43.4134L68.2179 44.7747H69.9437V38.3392H63.6934V40.4228Z" fill="#7F7F7F"/>
<path d="M80.9995 36.4104C80.9995 34.3179 79.3569 33.0177 76.7123 33.0177H71.5924V44.7658H74.1055V40.1294H75.7104L78.3927 44.7658H81.264L78.4199 39.8509C80.1276 39.1866 80.9995 38.0294 80.9995 36.4104ZM78.4879 36.5743C78.4879 37.4679 77.8835 37.9147 76.7123 37.9147H74.1055V35.2339H76.7078C77.885 35.2324 78.4834 35.6836 78.4834 36.5743H78.4879Z" fill="#7F7F7F"/>
<path d="M87.9344 32.7898C84.442 32.7898 81.8095 35.4126 81.8095 38.8962C81.8095 42.3798 84.442 45.0026 87.9344 45.0026C91.4267 45.0026 94.0592 42.3798 94.0592 38.8962C94.0592 35.4126 91.4267 32.7898 87.9344 32.7898ZM91.5144 38.8962C91.5144 41.163 90.0757 42.6851 87.9344 42.6851C85.793 42.6851 84.3544 41.163 84.3544 38.8962C84.3544 36.6294 85.793 35.1073 87.9344 35.1073C90.0757 35.1073 91.5144 36.6249 91.5144 38.8917V38.8962Z" fill="#7F7F7F"/>
<path d="M102.694 40.0639C102.694 41.726 101.818 42.6777 100.29 42.6777C98.762 42.6777 97.8855 41.726 97.8855 40.0639V33.0177H95.3739V40.2798C95.3739 43.1424 97.3022 44.9936 100.29 44.9936C103.277 44.9936 105.206 43.1424 105.206 40.2798V33.0177H102.694V40.0639Z" fill="#7F7F7F"/>
<path d="M112.432 33.0177H106.999V44.7658H109.511V40.7832H112.432C115.21 40.7832 116.934 39.2938 116.934 36.9004C116.934 34.507 115.207 33.0177 112.432 33.0177ZM114.422 36.9004C114.422 37.9698 113.711 38.5387 112.366 38.5387H109.511V35.2621H112.363C113.708 35.2651 114.419 35.8311 114.419 36.9004H114.422Z" fill="#7F7F7F"/>
</svg>
