<svg width="138" height="43" viewBox="0 0 138 43" fill="none" xmlns="http://www.w3.org/2000/svg">
<path d="M96.773 3.3019C96.773 3.3019 94.2049 4.32489 91.2181 7.61895C88.2313 10.913 86.4918 14.6172 87.7792 15.6022C88.2736 15.9767 89.414 16.048 91.4832 14.1759C93.3927 12.5168 94.8916 10.4372 95.862 8.10035C97.1984 4.83972 96.773 3.34202 96.773 3.30636M113.119 9.22809C109.8 7.52534 107.375 5.43925 104.851 4.14882C102.444 2.91187 100.887 2.39481 98.9401 2.65557C98.6686 2.70401 98.4007 2.77103 98.1383 2.85616C98.1383 2.85616 99.1406 6.28171 95.1515 12.0363C91.1112 17.8711 87.4451 17.831 86.4027 16.2285C85.3113 14.5369 86.7212 11.0891 89.0754 8.02012C91.5411 4.81075 95.8709 2.14965 95.8709 2.14965C95.8709 2.14965 94.49 1.30496 91.1001 3.22835C87.7925 5.09603 82.0995 9.55348 76.8164 17.071C71.5333 24.5885 70.4864 28.725 69.7291 31.9812C68.9719 35.2373 69.6601 38.7253 73.2683 38.7253C76.8765 38.7253 81.0772 33.2181 82.2621 31.3036C84.4649 27.7377 85.9015 22.2684 82.9036 23.0195C81.4269 23.3894 80.2308 25.0253 79.4758 26.601C78.9991 27.6131 78.6346 28.6743 78.3889 29.7658C77.3413 30.1978 76.3574 30.7707 75.4644 31.4686C74.471 32.2049 73.5426 33.0251 72.6892 33.9202C72.6892 33.9202 72.7026 31.317 74.7762 27.1047C76.8498 22.8924 80.6563 20.969 82.8123 20.7885C84.7545 20.6325 87.2825 22.2817 85.1398 28.3662C82.9971 34.4506 76.6761 41.8477 70.0365 41.9391C63.9092 42.0238 59.9001 34.1988 68.4284 20.5433C77.8677 5.45708 88.9396 0.828013 92.5344 0.313177C96.1293 -0.201659 97.2986 1.38519 97.2986 1.38519C99.4626 0.496836 101.8 0.111249 104.134 0.257459C108.524 0.55388 111.919 3.66295 116.4 5.84711C115.235 6.96147 114.124 8.13155 113.121 9.22809M132.842 4.14882C129.799 6.10118 125.59 7.87079 121.545 7.49191C120.52 8.55056 119.425 9.77636 118.327 11.1136C125.34 12.5021 131.485 8.15384 134.753 4.45192C135.944 3.12095 136.967 1.64863 137.8 0.0680169C136.312 1.61842 134.647 2.98812 132.84 4.14882M123.501 23.9221C123.554 23.8295 123.597 23.7317 123.63 23.6301C123.609 23.4694 123.534 23.3207 123.417 23.2087C123.299 23.0968 123.147 23.0284 122.986 23.015C122.318 22.9838 121.407 23.1108 119.017 25.7586C117.034 27.9451 115.328 30.3673 113.937 32.9707C112.569 35.4714 112.014 37.3346 112.801 37.816C113.056 37.9484 113.352 37.9787 113.629 37.9007C114.161 37.7736 114.765 37.2744 115.683 36.2113C116.113 35.7121 116.589 35.0056 117.159 34.2233C118.741 32.0703 122.714 25.2928 123.501 23.9221ZM98.6751 26.8016C99.0738 25.7586 99.5816 23.7104 98.5259 22.9058C97.3922 22.0522 94.5011 24.0558 94.4855 26.1107C94.4655 28.2146 96.5213 29.1663 97.0135 29.3C97.2942 29.3758 97.3922 29.3646 97.528 29.1395C97.9641 28.3878 98.3473 27.6066 98.6751 26.8016ZM96.4879 30.6283C95.7715 30.2973 95.1031 29.8707 94.5011 29.3602C93.8975 28.8535 93.393 28.2391 93.0133 27.5482C92.9732 27.4814 92.9331 27.5326 92.8886 27.5928C92.844 27.653 92.6658 27.8157 91.1246 30.0756C89.5833 32.3355 87.2157 37.0181 89.3583 37.816C90.7303 38.3264 93.0133 35.9216 94.2584 34.328C95.1066 33.2157 95.8755 32.045 96.5592 30.8245C96.6238 30.6885 96.5592 30.6573 96.4901 30.6283M120.794 36.0375C120.213 36.9691 119.549 38.7565 121.463 37.6444C123.803 36.2915 127.138 31.2301 127.138 31.2301H128.65C127.274 33.3473 125.742 35.3588 124.066 37.2477C121.694 39.8776 118.801 42.2668 116.763 42.0305C114.382 41.7519 115.128 38.625 115.128 38.625C115.128 38.625 111.723 42.2534 109.366 41.9926C106.183 41.6405 107.154 37.7045 107.154 37.7045C107.154 37.7045 103.555 42.1241 101.103 41.9882C97.2585 41.7653 98.2252 37.085 99.2943 33.7887C99.8667 32.0257 100.397 30.6417 100.397 30.6417C100.397 30.6417 100.016 30.742 99.1963 30.8646C98.7686 30.9248 97.9891 30.9693 97.9891 30.9693C97.9891 30.9693 96.3877 33.7954 95.107 35.4936C93.8263 37.1919 88.3828 43.0468 85.1799 41.8745C82.2176 40.7913 83.1976 36.2536 84.9215 32.6476C87.4384 27.39 94.5167 19.8368 98.5994 20.8353C102.831 21.8627 98.6951 29.5897 98.6951 29.5897C98.6951 29.5897 98.6951 29.6187 98.7397 29.6388C98.8243 29.67 99.0448 29.6945 99.5549 29.5942C100.083 29.4863 100.601 29.3319 101.103 29.1329C101.103 29.1329 105.357 20.2179 110.057 14.3854C114.756 8.55278 124.131 -1.49209 127.81 0.937221C128.701 1.53452 128.3 3.59164 127.089 6.08781C126.543 6.26519 125.988 6.41398 125.427 6.53356C126.238 5.06037 126.775 3.81897 126.935 2.95199C127.49 -0.0612495 120.458 6.29508 115.433 13.1239C112.407 17.2407 109.718 21.5957 107.393 26.1464C108.3 25.5924 109.167 24.9734 109.985 24.2943C112.227 22.4347 114.357 20.4447 116.364 18.3347C118.298 16.3542 120.111 14.2599 121.794 12.063C122.329 12.0371 122.862 11.9821 123.391 11.8981C121.556 14.3912 119.554 16.7575 117.4 18.981C115.395 21.0091 113.226 23.1911 111.342 24.7757C109.659 26.2079 107.883 27.5279 106.027 28.7272C106.027 28.7272 101.633 37.5953 104.023 38.1637C105.428 38.5024 108.203 34.2255 108.203 34.2255C108.203 34.2255 111.825 28.696 114.008 26.2021C116.986 22.8144 119.549 20.8531 122.111 20.8175C123.603 20.7907 124.483 22.3776 124.483 22.3776L125.184 21.29H129.505C129.505 21.29 121.436 34.9922 120.79 36.0241M132.84 4.14882C129.797 6.10118 125.588 7.87079 121.543 7.49191C120.518 8.55056 119.422 9.77636 118.324 11.1136C125.338 12.5021 131.483 8.15384 134.751 4.45192C135.943 3.12107 136.967 1.64874 137.8 0.0680169C136.312 1.61842 134.647 2.98812 132.84 4.14882ZM72.1569 10.8707H68.0475L65.7245 14.6261H69.8338L72.1569 10.8707ZM52.6992 23.8753C54.4477 21.4772 59.272 13.0726 59.272 13.0726C59.2516 12.9121 59.1768 12.7634 59.0601 12.6515C58.9433 12.5395 58.7917 12.471 58.6305 12.4575C57.9623 12.4263 56.8487 12.6514 54.637 15.4217C52.4253 18.192 50.708 20.3962 49.4563 22.6896C48.0843 25.1925 47.4851 26.9576 48.2736 27.4368C48.5295 27.5651 48.8234 27.5952 49.0999 27.5215C49.6122 27.3922 50.2826 26.8774 51.2025 25.8187C51.6346 25.324 52.1246 24.6576 52.6992 23.8753ZM30.649 12.5088C29.5131 11.6507 26.6243 13.6588 26.6087 15.7092C26.5909 17.8154 29.2079 18.4595 29.5465 18.4751C29.6461 18.4834 29.7459 18.4625 29.8338 18.4149C29.8942 18.3797 29.9424 18.3268 29.9719 18.2634C30.2796 17.6583 30.5561 17.0379 30.8004 16.4046C31.1991 15.3615 31.7047 13.3133 30.649 12.5088ZM28.9362 19.7588C28.1529 19.514 27.4044 19.1694 26.7089 18.7336C26.035 18.294 25.4869 17.6864 25.1186 16.9707C25.0785 16.9038 25.034 16.9551 24.9939 17.0153C24.9538 17.0754 24.7222 17.3652 23.1764 19.634C21.6307 21.9029 19.341 26.5431 21.4859 27.341C22.8535 27.8603 25.1632 25.4354 26.4171 23.8485C27.3555 22.6015 28.2226 21.3023 29.0142 19.9572C29.0654 19.8212 29.0142 19.79 28.9384 19.7655M62.4993 21.1562H64.005C64.005 21.1562 56.4611 32.077 52.2003 31.5689C49.8216 31.2903 50.5276 28.3528 50.5276 28.3528C50.5276 28.3528 47.1867 32.2664 44.1175 31.473C41.3333 30.7576 43.1308 26.1241 43.1308 26.1241C42.8145 26.2511 36.7897 33.0465 32.5556 31.4173C28.1255 29.7056 30.4263 24.0157 31.2682 22.304C31.9831 20.862 32.7738 19.4579 32.7738 19.4579C32.7738 19.4579 32.0945 19.6496 31.6602 19.7477C31.2259 19.8457 30.5978 19.9706 30.5978 19.9706C30.5978 19.9706 28.5019 23.3783 27.2212 25.0788C25.9405 26.7793 20.497 32.623 17.2897 31.4596C14.0824 30.2963 14.8775 25.8054 16.6794 22.2394C19.6016 16.4559 26.5352 9.34844 30.7114 10.4271C34.9299 11.5036 31.4375 18.3503 31.4375 18.3503C31.4375 18.3503 32.2771 18.4595 34.2884 17.0866C37.1839 15.1097 41.0059 9.79196 45.1442 10.416C47.0954 10.7102 48.9128 12.7049 46.4272 16.4937C45.6342 17.7106 44.3046 18.7982 43.2867 17.7218C42.6519 17.0532 43.2065 15.834 43.8725 15.0005C44.1317 14.6607 44.4704 14.3899 44.8588 14.2119C45.2472 14.0339 45.6733 13.9542 46.0998 13.9797C46.0998 13.9797 46.7835 12.4196 45.044 12.4419C43.6364 12.4687 40.0727 15.7516 38.0614 19.0679C36.2172 22.1124 33.422 27.2986 36.2284 28.4286C38.8009 29.4672 43.6965 23.6524 45.9639 20.6057C48.2313 17.5591 53.3986 10.6545 57.7329 10.3781C59.2252 10.28 60.1139 11.6418 60.1139 11.6418L60.615 10.8484H64.9494C64.9494 10.8484 56.7863 24.4793 56.1493 25.5112C55.6482 26.318 54.9822 28.1322 56.8175 27.1159C58.6528 26.0996 62.4993 21.1562 62.4993 21.1562ZM60.1406 42.9978C56.9493 40.7872 53.1278 39.6713 49.2491 39.8174C48.1993 39.846 47.1711 40.1219 46.2477 40.6226C45.3244 41.1233 44.532 41.8347 43.9348 42.6991C42.2822 39.8129 39.0147 38.0411 33.9632 38.0812C25.8002 38.1748 17.7039 41.9414 11.2893 41.9369C5.14199 41.9369 0.658438 38.0701 0.803213 31.2033C1.07272 19.1526 11.2492 8.30094 18.8443 3.41779C23.2232 0.611826 26.8849 -0.221718 29.2792 0.0479583C31.0254 0.241858 33.1257 2.26108 31.8005 5.23644C29.8538 9.58468 27.1655 9.22809 27.2657 7.14869C27.3214 5.79585 28.2212 4.94447 28.8983 4.47421C29.3282 4.17779 30.0877 4.0931 30.4842 4.08418C30.8695 3.75879 31.1524 1.37851 28.0341 2.16079C24.9159 2.94308 21.1295 6.01872 17.5347 9.99254C13.9398 13.9664 8.34261 21.4772 6.95946 29.3646C6.31355 33.022 6.73673 39.6926 15.4031 39.6168C22.7532 39.5566 33.5868 34.7136 43.5428 34.8139C47.4072 34.8518 50.7704 35.8948 53.3919 37.5129C55.9667 39.0997 59.0537 41.4176 60.1495 43" fill="#7F7F7F"/>
</svg>
