<svg width="131" height="54" viewBox="0 0 131 54" fill="none" xmlns="http://www.w3.org/2000/svg">
<path fill-rule="evenodd" clip-rule="evenodd" d="M91.4984 5.16503C98.9362 -4.76048 114.51 0.5831 114.539 13.0061L114.597 38.7647V38.7659C114.602 41.0463 116.302 42.5952 118.358 42.6847H131V51.7757H118.278L118.143 51.7735C111.9 51.5829 105.638 46.6533 105.621 38.7857V38.7847L105.562 13.0273C105.553 9.26068 100.868 7.70003 98.6488 10.6608L98.6486 10.661L70.0463 48.8346L70.046 48.8351C62.5997 58.7701 47.0059 53.4053 47.0059 40.9642V28.0441C47.0059 24.2797 42.3269 22.7062 40.0994 25.6605L40.0991 25.661L23.9484 47.0904C21.2166 50.715 17.2715 52.328 13.4423 52.2092H0V43.1181H13.5182L13.6882 43.1216C14.806 43.1643 15.9336 42.7414 16.8129 41.5744L32.964 20.1447L32.9643 20.1444C40.4271 10.244 55.9823 15.6231 55.9823 28.0441V40.9642C55.9823 44.7337 60.6722 46.3046 62.8956 43.339L62.8961 43.3385L91.4981 5.16528L91.4984 5.16503Z" fill="white"/>
</svg>
