<svg width="144" height="45" viewBox="0 0 144 45" fill="none" xmlns="http://www.w3.org/2000/svg">
<path fill-rule="evenodd" clip-rule="evenodd" d="M75.8928 11.3066C75.8928 12.9283 74.5884 14.2345 72.9688 14.2345C71.3492 14.2345 70.0448 12.9283 70.0448 11.3066C70.0448 9.68482 71.3044 8.37869 72.9688 8.37869C74.6332 8.42355 75.8928 9.73008 75.8928 11.3066ZM63.8368 17.9281C63.8368 17.9281 62.4424 16.1266 59.4732 16.1266C54.57 16.1266 50.746 19.8651 50.746 25.0452C50.746 30.1804 54.5248 33.9638 59.4732 33.9638C62.4872 33.9638 63.8368 32.1169 63.8368 32.1169V32.8828C63.8368 33.2432 64.1068 33.5132 64.4664 33.5132H68.11V16.5764H64.4664C64.1064 16.5764 63.8368 16.8916 63.8368 17.2068V17.9281ZM63.8368 28.0632C63.162 29.0541 61.8124 29.91 60.1932 29.91C57.314 29.91 55.11 28.1084 55.11 25.0452C55.11 21.9823 57.3144 20.1803 60.1932 20.1803C61.7676 20.1803 63.2072 21.0811 63.8368 22.0272V28.0632ZM70.8096 16.5768H75.128V33.5136H70.8096V16.5768ZM135.318 16.1262C132.349 16.1262 130.954 17.9277 130.954 17.9277V8.42355H126.636V33.5132H130.28C130.64 33.5132 130.909 33.198 130.909 32.8828V32.1169C130.909 32.1169 132.304 33.9638 135.273 33.9638C140.176 33.9638 144 30.18 144 25.0452C144 19.91 140.176 16.1266 135.318 16.1266V16.1262ZM134.598 29.8648C132.934 29.8648 131.63 29.0088 130.955 28.0179V21.9819C131.63 21.0811 133.069 20.1351 134.598 20.1351C137.478 20.1351 139.682 21.9367 139.682 24.9999C139.682 28.0628 137.477 29.8648 134.598 29.8648ZM124.387 23.4683V33.558H120.068V23.9637C120.068 21.1708 119.169 20.0449 116.74 20.0449C115.435 20.0449 114.086 20.7206 113.231 21.7116V33.5132H108.912V16.5764H112.331C112.691 16.5764 112.961 16.8916 112.961 17.2068V17.9273C114.22 16.6212 115.885 16.1258 117.549 16.1258C119.438 16.1258 121.013 16.6665 122.273 17.7475C123.802 19.0088 124.387 20.6305 124.387 23.4683ZM98.4304 16.1262C95.4616 16.1262 94.0668 17.9277 94.0668 17.9277V8.42355H89.7484V33.5132H93.392C93.752 33.5132 94.0216 33.198 94.0216 32.8828V32.1169C94.0216 32.1169 95.416 33.9638 98.3852 33.9638C103.288 33.9638 107.112 30.18 107.112 25.0452C107.157 19.91 103.334 16.1266 98.4304 16.1266V16.1262ZM97.7108 29.8648C96.0464 29.8648 94.742 29.0088 94.0672 28.0179V21.9819C94.742 21.0811 96.1816 20.1351 97.7108 20.1351C100.59 20.1351 102.794 21.9367 102.794 24.9999C102.794 28.0628 100.59 29.8648 97.7108 29.8648ZM86.0148 16.1262C87.3192 16.1262 87.994 16.3513 87.994 16.3513V20.3602C87.994 20.3602 84.3952 19.1442 82.146 21.7116V33.5584H77.8276V16.5768H81.4712C81.8312 16.5768 82.1008 16.892 82.1008 17.2072V17.9277C82.9104 16.9817 84.6652 16.1262 86.0148 16.1262ZM41.1648 31.982C40.94 31.4412 40.7148 30.8557 40.49 30.3602C40.13 29.5495 39.7704 28.7837 39.4552 28.0628L39.4104 28.0179C36.3064 21.2614 32.9776 14.4143 29.4688 7.65774L29.334 7.38739C28.974 6.71169 28.6144 5.99113 28.2544 5.27018C27.8044 4.4595 27.3548 3.60357 26.6348 2.7929C25.1952 0.99131 23.126 0 20.9216 0C18.6724 0 16.648 0.990913 15.1636 2.70278C14.4888 3.51345 13.994 4.36939 13.544 5.18006C13.184 5.90062 12.8244 6.62157 12.4644 7.29726L12.3296 7.56762C8.86563 14.3242 5.49203 21.1712 2.38803 27.9278L2.34323 28.0179C2.02843 28.7385 1.66843 29.5043 1.30843 30.3154C1.08363 30.8108 0.858429 31.3515 0.633629 31.9371C0.0488291 33.6037 -0.13117 35.1802 0.0936297 36.8019C0.58843 40.1804 2.83763 43.0182 5.94163 44.2795C7.11123 44.7749 8.32563 45 9.58523 45C9.94523 45 10.3948 44.9551 10.7548 44.9099C12.2392 44.7296 13.7688 44.2342 15.2532 43.3783C17.0976 42.3421 18.852 40.8557 20.8312 38.6936C22.8104 40.8557 24.61 42.3421 26.4092 43.3783C27.8936 44.2342 29.4232 44.7296 30.9076 44.9099C31.2676 44.9547 31.7172 45 32.0772 45C33.3368 45 34.5964 44.7749 35.7208 44.2795C38.8696 43.0182 41.074 40.1352 41.5688 36.8019C41.9288 35.2255 41.7488 33.649 41.164 31.9824L41.1648 31.982ZM20.8768 34.3243C18.4476 31.2614 16.8732 28.3784 16.3332 25.946C16.1084 24.9098 16.0632 24.009 16.1984 23.1983C16.2884 22.4778 16.5584 21.8469 16.918 21.3066C17.7728 20.0906 19.2124 19.3248 20.8768 19.3248C22.5412 19.3248 24.0256 20.0454 24.8356 21.3066C25.1956 21.8473 25.4652 22.4778 25.5552 23.1983C25.69 24.009 25.6452 24.9551 25.4204 25.946C24.8804 28.3331 23.306 31.2161 20.8768 34.3243ZM38.8256 36.4415C38.5108 38.7838 36.9364 40.8109 34.732 41.7116C33.6524 42.1622 32.4828 42.2972 31.3132 42.1622C30.1884 42.0273 29.064 41.6668 27.8944 40.9911C26.2748 40.0903 24.6556 38.6937 22.766 36.6217C25.7348 32.9733 27.5344 29.6397 28.2092 26.6669C28.524 25.2707 28.5692 24.0094 28.434 22.8382C28.254 21.712 27.8492 20.6762 27.2196 19.7754C25.8252 17.7483 23.486 16.5772 20.8768 16.5772C18.2676 16.5772 15.9284 17.7932 14.534 19.7754C13.9044 20.6762 13.4992 21.7124 13.3196 22.8382C13.1396 24.0094 13.1848 25.3155 13.5444 26.6669C14.2192 29.6397 16.0636 33.0181 18.9876 36.667C17.1432 38.7389 15.4788 40.1356 13.8592 41.0364C12.6896 41.7121 11.5648 42.0725 10.4404 42.2075C9.22603 42.3425 8.05643 42.1626 7.02163 41.7569C4.81723 40.8561 3.24283 38.829 2.92803 36.4867C2.79323 35.3604 2.88323 34.2345 3.33283 32.9733C3.46763 32.5227 3.69283 32.0725 3.91763 31.5318C4.23243 30.8112 4.59243 30.0454 4.95243 29.2796L4.99723 29.1895C8.10123 22.4778 11.43 15.6311 14.894 8.96467L15.0288 8.69432L16.1084 6.62237C16.4684 5.90182 16.8732 5.22612 17.368 4.64055C18.3128 3.55951 19.5724 2.97393 20.9668 2.97393C22.3612 2.97393 23.6208 3.55951 24.5656 4.64055C25.0604 5.22612 25.4652 5.90182 25.8252 6.62237L26.9048 8.69432L27.0396 8.96467C30.4584 15.6764 33.7872 22.523 36.8912 29.2347V29.2796L37.926 31.5318C38.1508 32.0725 38.376 32.5227 38.5108 32.9733C38.8708 34.1444 39.0056 35.2703 38.8256 36.4415Z" fill="white"/>
</svg>
