<svg width="80" height="80" viewBox="0 0 80 80" fill="none" xmlns="http://www.w3.org/2000/svg">
<g clip-path="url(#clip0_2149_11512)">
<path fill-rule="evenodd" clip-rule="evenodd" d="M0 80H80V0H0V80ZM38.2245 54.5445H29.4311C28.92 54.5445 28.5066 54.9466 28.5066 55.4355V55.5845C28.5066 56.1066 28.9156 56.5111 29.4311 56.5111H37.1489V65.0066C36.3734 65.5666 33.6977 67.2178 29.1377 67.2178C25.8934 67.2178 22.8577 65.9889 20.5889 63.7577C18.3134 61.5177 17.0623 58.5111 17.0623 55.2889C17.0623 52.0622 18.3156 49.04 20.5911 46.7823C22.8645 44.5266 25.9 43.2866 29.1377 43.2866C32.2245 43.2866 34.7177 44.2489 37.2222 46.4C37.5645 46.72 38.0978 46.7134 38.4378 46.3823L38.6645 46.1134L38.7066 46.0534C38.9466 45.6978 38.8956 45.2266 38.5866 44.9178L38.5445 44.88C35.58 42.3955 32.6823 41.2866 29.14 41.2866C25.3666 41.2866 21.8289 42.7355 19.18 45.3666C16.5266 48 15.0622 51.5245 15.0622 55.2911C15.0622 59.0534 16.5266 62.5666 19.1845 65.1844C21.8266 67.7866 25.3645 69.2222 29.14 69.2222C35.0956 69.2222 38.5911 66.6778 39.0489 65.9578L39.1534 65.7934V55.4445C39.1511 54.9466 38.7334 54.5445 38.2245 54.5445ZM46.4955 41.6534H62.34C62.8623 41.6534 63.2645 42.0578 63.2666 42.5734V42.7222C63.2666 43.2422 62.8623 43.6489 62.34 43.6489H47.5689V54.5377H58.9489C59.4666 54.5377 59.8734 54.9445 59.8734 55.4645V55.6134C59.8734 56.1334 59.4666 56.54 58.9489 56.54H47.5689V66.8445H61.5334C62.0534 66.8445 62.4578 67.2511 62.4578 67.7711V67.9178C62.4578 68.4355 62.0511 68.8422 61.5334 68.8422H46.4955C45.9755 68.8422 45.5689 68.4355 45.5689 67.9178V42.5755C45.5689 42.0577 45.9755 41.6534 46.4955 41.6534ZM59.9223 33.9756C62.5866 31.3423 64.0534 27.8022 64.0534 24.0066C64.0534 20.2089 62.5866 16.6578 59.9245 14.0045C57.2645 11.3533 53.7045 9.89556 49.9045 9.89556C46.1066 9.89556 42.5555 11.3556 39.9023 14.0045C37.2511 16.6556 35.7934 20.2089 35.7934 24.0066C35.7934 31.88 41.9911 38.0445 49.9045 38.0445C53.7066 38.0445 57.2666 36.6 59.9223 33.9756ZM49.9022 11.9C53.1666 11.9 56.2223 13.1511 58.5045 15.4245C60.7889 17.7 62.0489 20.7466 62.0489 24.0066C62.0489 30.7534 56.7134 36.04 49.9022 36.04C43.1134 36.04 37.7955 30.7534 37.7955 24.0066C37.7955 20.7466 39.0466 17.6956 41.3177 15.4245C43.5934 13.1511 46.64 11.9 49.9022 11.9ZM35.3534 38.0445H20.3177C19.8022 38.0445 19.3934 37.64 19.3934 37.1222V10.8889C19.3934 10.3667 19.8022 9.96222 20.3177 9.96222H20.4666C20.9866 9.96222 21.3934 10.3667 21.3934 10.8889V36.0445H35.3534C35.8734 36.0445 36.28 36.4511 36.28 36.9711V37.12C36.28 37.64 35.8711 38.0445 35.3534 38.0445Z" fill="white"/>
</g>
<defs>
<clipPath id="clip0_2149_11512">
<rect width="80" height="80" fill="white"/>
</clipPath>
</defs>
</svg>
